<svg xmlns="http://www.w3.org/2000/svg" xmlns:xlink="http://www.w3.org/1999/xlink" version="1.1" viewBox="0 0 106 106">
  <path id="svg_1" fill="#E0031E" d="m0.9,52.5c-0.2,28.7 23,52.1 51.7,52.2c28.7,0.2 52.1,-23 52.2,-51.7c0.2,-28.7 -23,-52.1 -51.7,-52.2l-0.3,0c-28.5,0 -51.8,23.1 -51.9,51.7"/>
  <path id="svg_2" fill="#ffffff" d="m87.9,45.7l0,0l-30.9,-30.7c-0.8,-0.9 -1.9,-1.4 -3.2,-1.4l0,0c-1.3,0 -2.4,0.5 -3.2,1.4l-30.9,30.7c-1.2,1.2 -1.9,2.9 -1.9,4.7c0,3.7 3,6.7 6.6,6.7l4.2,0c0,0 0,23.3 0,23.4c0,2.4 1.9,4.4 4.3,4.4l41.6,0c2.4,0 4.3,-2 4.3,-4.4c0,-0.1 0,-23.4 0,-23.4l4.3,0c3.7,0 6.6,-3 6.6,-6.7c0.1,-1.9 -0.6,-3.5 -1.8,-4.7m-17.1,3.3l0,27.6l-33.9,0l0,-27.6l-8.9,0l25.9,-25.8l25.9,25.8l-9,0z"/>
</svg>